<svg width="679" height="413" viewBox="0 0 679 413" fill="none" xmlns="http://www.w3.org/2000/svg">
<g clip-path="url(#clip0_1_520)">
<path d="M495.444 100.579C495.444 140.203 431.216 257.056 394.39 320.799C391.893 325.124 388.242 328.727 383.816 331.235C379.39 333.743 374.35 335.066 369.216 335.066C364.083 335.066 359.042 333.743 354.616 331.235C350.19 328.727 346.54 325.124 344.042 320.799C307.216 257.056 242.988 140.203 242.988 100.579C242.988 45.0308 299.502 0 369.216 0C438.93 0 495.444 45.0308 495.444 100.579Z" fill="#F86061"/>
<path d="M369.809 165.727C407.775 165.727 438.553 136.048 438.553 99.4363C438.553 62.8249 407.775 33.1455 369.809 33.1455C331.843 33.1455 301.065 62.8249 301.065 99.4363C301.065 136.048 331.843 165.727 369.809 165.727Z" fill="white"/>
<path d="M82.9451 159.417C105.685 159.417 124.12 141.64 124.12 119.712C124.12 97.7829 105.685 80.0061 82.9451 80.0061C60.2049 80.0061 41.7703 97.7829 41.7703 119.712C41.7703 141.64 60.2049 159.417 82.9451 159.417Z" fill="#FF6584"/>
<path d="M369.216 413C424.262 413 468.885 409.678 468.885 405.58C468.885 401.483 424.262 398.161 369.216 398.161C314.17 398.161 269.547 401.483 269.547 405.58C269.547 409.678 314.17 413 369.216 413Z" fill="#F86061"/>
<path opacity="0.4" d="M74.5615 155.021C76.6571 142.568 67.8873 130.835 54.9736 128.814C42.0599 126.793 29.8925 135.25 27.7969 147.703C25.7013 160.156 34.4711 171.889 47.3848 173.91C60.2984 175.931 72.4659 167.474 74.5615 155.021Z" fill="#F86061"/>
<path d="M605.385 269.198C418.84 201.764 191.322 267.506 59.9615 401.985C59.2148 402.739 58.4681 403.505 57.7451 404.271H55.742C56.4295 403.505 57.1406 402.739 57.8399 401.985C191.926 257.277 416.422 199.604 605.385 269.198Z" fill="#3F3D56"/>
<path d="M656.362 291.565C639.873 283.085 622.847 275.615 605.385 269.198C622.893 275.509 639.926 282.983 656.362 291.565Z" fill="#3F3D56"/>
<path opacity="0.4" d="M554.266 224.286C568.615 224.286 580.247 213.069 580.247 199.232C580.247 185.396 568.615 174.179 554.266 174.179C539.917 174.179 528.285 185.396 528.285 199.232C528.285 213.069 539.917 224.286 554.266 224.286Z" fill="#F86061"/>
<path d="M557.159 391.94C559.167 399.097 566.044 403.529 566.044 403.529C566.044 403.529 569.665 396.358 567.658 389.201C565.65 382.044 558.773 377.612 558.773 377.612C558.773 377.612 555.151 384.783 557.159 391.94Z" fill="#3F3D56"/>
<path d="M560.109 390.402C565.618 395.573 566.291 403.523 566.291 403.523C566.291 403.523 558.032 403.088 552.523 397.917C547.014 392.745 546.341 384.795 546.341 384.795C546.341 384.795 554.6 385.23 560.109 390.402Z" fill="#F86061"/>
<path d="M3.98238 292.428V303.469L3.41345 304.064V292.314C3.60309 292.349 3.79278 292.394 3.98238 292.428Z" fill="#3F3D56"/>
<path d="M40.4641 401.98C40.2981 402.243 40.1204 402.506 39.9426 402.768H3.41349V292.977L3.98242 292.429L8.83004 297.743V289.971H24.2381V314.636L39.8003 331.677L39.9426 331.837C40.1322 332.409 40.31 332.98 40.4878 333.552C40.489 333.56 40.4932 333.568 40.4996 333.575C42.8335 340.777 44.7487 348.099 46.2362 355.508C49.6259 372.983 49.1163 389.007 40.4641 401.98Z" fill="#CCCCCC"/>
<path d="M16.2396 353.116H6.43241V360.997H16.2396V353.116Z" fill="#3F3D56"/>
<path d="M16.2396 367.302H6.43241V375.183H16.2396V367.302Z" fill="#3F3D56"/>
<path d="M318.341 338.142L313.437 330.261L359.204 292.432C393.039 276.727 433.825 281.259 476.891 292.432V303.465L434.393 347.6L385.357 357.057L318.341 338.142Z" fill="#3F3D56"/>
<path d="M497.15 314.632C505.277 305.914 506.406 297.625 497.15 289.97H481.741V297.747L476.891 292.432L437.662 330.262L431.123 336.566L422.951 368.091L437.662 402.766H512.85V331.838L497.15 314.632Z" fill="#CCCCCC"/>
<path d="M313.437 330.261H437.662V402.767H313.437C298.409 387.087 306.216 358.509 313.437 330.261Z" fill="#F2F2F2"/>
<path d="M420.5 353.116H394.347V375.183H420.5V353.116Z" fill="#3F3D56"/>
<path d="M383.723 352.328H360.839V402.767H383.723V352.328Z" fill="#CCCCCC"/>
<path d="M334.687 360.209V352.329H324.88V360.209H333.869H334.687Z" fill="#3F3D56"/>
<path d="M333.869 366.514H324.88V374.395H334.687V366.514H333.869Z" fill="#3F3D56"/>
<path d="M351.032 352.328H341.225V360.209H351.032V352.328Z" fill="#3F3D56"/>
<path d="M351.032 366.514H341.225V374.395H351.032V366.514Z" fill="#3F3D56"/>
<path d="M472.805 360.998V353.116H462.997V360.998H471.987H472.805Z" fill="#3F3D56"/>
<path d="M471.987 367.302H462.997V375.183H472.805V367.302H471.987Z" fill="#3F3D56"/>
<path d="M489.15 353.116H479.343V360.997H489.15V353.116Z" fill="#3F3D56"/>
<path d="M489.15 367.302H479.343V375.183H489.15V367.302Z" fill="#3F3D56"/>
<path d="M97.1493 205.741L88.9771 199.436L134.744 160.031H250.795V194.707L175.607 243.571L97.1493 205.741Z" fill="#3F3D56"/>
<path d="M271.954 182.135V160.818H256.546V166.039L250.795 160.03L213.201 199.436L198.491 208.893L175.681 369.595L210.08 402.767H290.024C302.274 343.347 311.987 282.307 290.024 201.012L271.954 182.135Z" fill="#CCCCCC"/>
<path d="M88.9764 199.436H213.201V402.767H88.9764C75.3827 323.774 68.7438 250.52 88.9764 199.436Z" fill="#F2F2F2"/>
<path d="M160.079 353.116H137.195V402.767H160.079V353.116Z" fill="#CCCCCC"/>
<path d="M112.677 367.302V359.422H102.87V367.302H111.86H112.677Z" fill="#3F3D56"/>
<path d="M111.86 373.607H102.87V381.489H112.677V373.607H111.86Z" fill="#3F3D56"/>
<path d="M129.023 359.421H119.215V367.302H129.023V359.421Z" fill="#3F3D56"/>
<path d="M178.876 373.607H169.886V381.489H179.693V373.607H178.876Z" fill="#3F3D56"/>
<path d="M196.038 359.421H186.231V367.302H196.038V359.421Z" fill="#3F3D56"/>
<path d="M196.038 373.607H186.231V381.488H196.038V373.607Z" fill="#3F3D56"/>
<path d="M248.343 209.681V201.801H238.536V209.681H247.527H248.343Z" fill="#3F3D56"/>
<path d="M247.527 215.987H238.536V223.867H248.343V215.987H247.527Z" fill="#3F3D56"/>
<path d="M264.689 201.8H254.882V209.681H264.689V201.8Z" fill="#3F3D56"/>
<path d="M264.689 215.986H254.882V223.867H264.689V215.986Z" fill="#3F3D56"/>
<path d="M248.343 253.816V245.934H238.536V253.816H247.527H248.343Z" fill="#3F3D56"/>
<path d="M247.527 260.121H238.536V268.001H248.343V260.121H247.527Z" fill="#3F3D56"/>
<path d="M264.689 245.934H254.882V253.815H264.689V245.934Z" fill="#3F3D56"/>
<path d="M264.689 260.12H254.882V268.001H264.689V260.12Z" fill="#3F3D56"/>
<path d="M248.343 297.95V290.068H238.536V297.95H247.527H248.343Z" fill="#3F3D56"/>
<path d="M247.527 304.254H238.536V312.135H248.343V304.254H247.527Z" fill="#3F3D56"/>
<path d="M264.689 290.068H254.882V297.949H264.689V290.068Z" fill="#3F3D56"/>
<path d="M264.689 304.254H254.882V312.135H264.689V304.254Z" fill="#3F3D56"/>
<path d="M248.343 342.083V334.202H238.536V342.083H247.527H248.343Z" fill="#3F3D56"/>
<path d="M247.527 348.388H238.536V356.269H248.343V348.388H247.527Z" fill="#3F3D56"/>
<path d="M264.689 334.202H254.882V342.083H264.689V334.202Z" fill="#3F3D56"/>
<path d="M264.689 348.387H254.882V356.268H264.689V348.387Z" fill="#3F3D56"/>
<path d="M102.87 209.681H197.673V228.596C167.286 220.509 135.598 221.089 102.87 228.596V209.681Z" fill="#3F3D56"/>
<path d="M102.87 247.51C132.459 255.917 164.06 255.917 197.673 247.51V266.425H102.87V247.51Z" fill="#3F3D56"/>
<path d="M102.87 285.339H197.673V304.254C165.364 294.305 133.73 293.836 102.87 304.254V285.339Z" fill="#3F3D56"/>
<path d="M102.87 323.168C133.788 334.659 165.418 334.181 197.673 323.168V342.083H102.87V323.168Z" fill="#3F3D56"/>
<path d="M612.389 290.308H679V321.259L673.05 323.054L653.256 329.011L622.203 322.074L591.185 315.143L574.805 311.484L566.627 308.566C573.431 299.564 585.804 292.484 612.389 290.308Z" fill="#3F3D56"/>
<path d="M679 308.566V402.768H566.627C566.592 402.71 566.568 402.657 566.532 402.599V402.594C566.506 402.528 566.474 402.464 566.438 402.403C564.683 398.998 563.111 395.602 561.72 392.215C549.927 363.552 551.207 335.646 566.627 308.566H679Z" fill="#F2F2F2"/>
<path d="M637.73 353.116H614.847V402.767H637.73V353.116Z" fill="#CCCCCC"/>
<path d="M590.328 367.302V359.422H580.522V367.302H589.512H590.328Z" fill="#3F3D56"/>
<path d="M589.512 373.607H580.522V381.489H590.328V373.607H589.512Z" fill="#3F3D56"/>
<path d="M606.674 359.421H596.867V367.302H606.674V359.421Z" fill="#3F3D56"/>
<path d="M606.674 373.607H596.867V381.488H606.674V373.607Z" fill="#3F3D56"/>
<path d="M657.344 367.302V359.422H647.538V367.302H656.528H657.344Z" fill="#3F3D56"/>
<path d="M656.528 373.607H647.538V381.489H657.344V373.607H656.528Z" fill="#3F3D56"/>
<path d="M673.69 359.421H663.883V367.302H673.69V359.421Z" fill="#3F3D56"/>
<path d="M673.69 373.607H663.883V381.488H673.69V373.607Z" fill="#3F3D56"/>
<path d="M591.189 253.734H605.276C619.171 253.734 632.496 259.056 642.321 268.531C652.146 278.005 657.665 290.855 657.665 304.254H591.189V253.734Z" fill="#3F3D56"/>
<path d="M164.502 116.58H178.59C192.485 116.58 205.81 121.903 215.635 131.377C225.46 140.852 230.979 153.702 230.979 167.1H164.502V116.58Z" fill="#3F3D56"/>
<path d="M389.698 243.447H403.785C417.68 243.447 431.005 248.77 440.83 258.244C450.655 267.719 456.175 280.568 456.175 293.967H389.698V243.447Z" fill="#3F3D56"/>
<path d="M657.665 323.168H591.188V342.083H657.665V323.168Z" fill="#3F3D56"/>
<path d="M679 401.985H3.4137V404.271H679V401.985Z" fill="#3F3D56"/>
<path d="M65.7225 311.687H63.3521V401.98H65.7225V311.687Z" fill="#3F3D56"/>
<path d="M87.5994 323.194C87.7503 354.767 64.7149 380.465 64.7149 380.465C64.7149 380.465 35.2152 354.426 41.284 323.4C47.3875 292.196 66.4099 266.261 64.1685 266.129C64.1685 266.129 87.4485 291.621 87.5994 323.194Z" fill="#F86061"/>
<path d="M302.77 311.687H300.4V401.98H302.77V311.687Z" fill="#3F3D56"/>
<path d="M324.647 323.194C326.784 354.7 301.763 380.465 301.763 380.465C301.763 380.465 278.483 354.973 278.332 323.4C278.181 291.827 301.216 266.129 301.216 266.129C298.97 274.783 322.918 297.702 324.647 323.194Z" fill="#F86061"/>
<path d="M148.763 164.914L251.729 160.057L294.923 194.824L287.287 201.473L218.888 199.988L148.763 164.914Z" fill="#3F3D56"/>
<path d="M46.0229 326.26L40.4759 331.094L39.8003 331.677L38.3899 332.912L3.41349 332.157V292.314C2.27566 292.074 1.13783 291.846 -3.8147e-06 291.629L2.83273 291.491L3.41349 291.96L8.83004 296.315L24.2381 308.727L41.4478 322.58L46.0229 326.26Z" fill="#3F3D56"/>
<path d="M373.958 296.353L476.925 291.496L520.118 326.263L512.482 332.911L444.083 331.427L373.958 296.353Z" fill="#3F3D56"/>
</g>
<defs>
<clipPath id="clip0_1_520">
<rect width="679" height="413" fill="white"/>
</clipPath>
</defs>
</svg>
