<svg width="619" height="454" viewBox="0 0 619 454" fill="none" xmlns="http://www.w3.org/2000/svg">
<g clip-path="url(#clip0_1_352)">
<path d="M41.6572 342.114C38.7179 342.114 35.7725 342.245 32.8962 342.511L32.4775 342.549C13.3985 344.378 -0.556877 354.99 0.0170698 367.234L0.128027 369.448C0.201198 370.848 0.279158 372.352 0.343328 374.022C0.378084 374.845 1.41388 375.477 2.70272 375.477H472C505.088 375.259 538.056 374.985 569.982 374.662C575.97 374.675 581.954 374.339 587.909 373.654C596.781 372.515 602.939 370.258 606.737 366.753H606.738C611.461 362.406 611.609 356.933 611.324 350.749C610.742 338.262 610.165 325.144 609.589 312.066C609.081 300.54 608.575 289.044 608.068 278.039C607.755 271.508 607.06 265.743 601.697 261.337C595.884 256.572 585.283 254.157 570.187 254.157C570.005 254.157 569.824 254.157 569.639 254.158C522.332 254.34 475.457 271.982 452.999 298.057C450.413 301.06 448.003 304.274 445.673 307.383C442.229 311.976 438.669 316.725 434.42 320.972C432.12 323.302 429.632 325.405 426.987 327.256C426.805 327.392 426.596 327.539 426.375 327.678C425.87 328.034 425.342 328.379 424.828 328.685C421.815 330.572 418.64 332.138 415.348 333.359L415.016 333.48C414.766 333.577 414.495 333.674 414.224 333.763C412.323 334.424 410.348 334.997 408.369 335.46C399.808 337.506 390.074 337.997 379.438 336.916C369.67 335.898 360.027 333.767 350.671 330.559C340.821 327.183 331.602 322.973 322.686 318.903C318.77 317.115 314.719 315.266 310.674 313.514C309.914 313.184 309.166 312.862 308.406 312.54C303.466 310.451 298.986 308.727 294.713 307.267C284.124 303.636 273.164 301.435 262.079 300.712C250.314 300.013 239.945 301.331 231.269 304.619C228.877 305.522 226.548 306.61 224.3 307.875C214.024 313.663 207.689 322.204 201.564 330.465C193.943 340.739 186.063 351.365 170.503 356.873C152.549 363.234 126.341 360.591 107.8 355.995C101.97 354.55 96.148 352.887 90.517 351.279C88.2428 350.629 85.9669 349.984 83.6895 349.343C79.2143 348.09 75.5516 347.13 72.1631 346.319L71.0913 346.061C70.4952 345.92 69.8985 345.78 69.2909 345.646C65.266 344.73 61.5182 344.009 57.8274 343.441L56.9542 343.303C55.2036 343.053 53.5669 342.845 51.9608 342.67L51.3197 342.601C48.174 342.276 44.9186 342.114 41.6572 342.114Z" fill="#F2F2F2"/>
<path d="M526.938 355.779C540.143 342.874 559.785 336.385 576.26 343.621C559.36 353.797 546.323 370.129 539.456 389.726C536.833 397.295 534.643 406.009 528.191 410.06C524.177 412.582 519.183 412.705 514.682 411.488C510.181 410.271 506.056 407.831 501.987 405.415L500.829 405.387C506.027 386.951 513.733 368.685 526.938 355.779Z" fill="#E6E6E6"/>
<path d="M576.168 344.013C561.576 346.058 547.949 353.038 537.223 363.96C534.876 366.267 532.878 368.961 531.304 371.943C529.857 374.901 529.167 378.225 529.306 381.57C529.377 384.692 529.783 387.877 529.154 390.963C528.81 392.538 528.163 394.015 527.255 395.3C526.347 396.584 525.2 397.646 523.887 398.416C520.663 400.426 516.965 401.06 513.329 401.543C509.291 402.08 505.09 402.568 501.595 405.024C501.172 405.321 500.771 404.591 501.194 404.294C507.274 400.021 514.968 401.576 521.506 398.724C524.557 397.394 527.256 395.058 528.212 391.526C529.047 388.438 528.631 385.154 528.533 381.994C528.354 378.732 528.914 375.473 530.164 372.501C531.593 369.442 533.492 366.669 535.779 364.301C540.849 358.881 546.673 354.359 553.038 350.901C560.282 346.91 568.103 344.294 576.161 343.163C576.66 343.094 576.664 343.944 576.168 344.013Z" fill="white"/>
<path d="M540.486 360.223C539.041 358.022 538.364 355.336 538.576 352.644C538.788 349.952 539.875 347.43 541.644 345.527C542.003 345.143 542.57 345.731 542.21 346.115C540.56 347.883 539.547 350.233 539.355 352.74C539.162 355.247 539.802 357.747 541.159 359.787C541.453 360.231 540.779 360.664 540.486 360.223Z" fill="white"/>
<path d="M529.077 379.993C534.092 380.956 539.257 379.835 543.542 376.851C543.967 376.556 544.368 377.285 543.944 377.581C539.479 380.676 534.102 381.832 528.886 380.817C528.388 380.719 528.583 379.896 529.077 379.993Z" fill="white"/>
<path d="M560.346 348.035C560.742 349.013 561.355 349.869 562.131 350.526C562.907 351.183 563.822 351.621 564.792 351.8C565.29 351.89 565.095 352.714 564.601 352.624C563.529 352.421 562.52 351.936 561.661 351.212C560.802 350.488 560.12 349.547 559.673 348.471C559.624 348.373 559.61 348.259 559.635 348.15C559.66 348.042 559.722 347.948 559.809 347.888C559.898 347.831 560.005 347.814 560.105 347.842C560.206 347.869 560.292 347.939 560.346 348.035Z" fill="white"/>
<path d="M594.403 405.857C594.09 405.811 593.778 405.764 593.461 405.722C589.257 405.117 585.015 404.884 580.777 405.023C580.449 405.029 580.117 405.039 579.79 405.055C569.582 405.51 559.541 408.017 550.177 412.447C546.452 414.214 542.857 416.286 539.422 418.644C534.678 421.901 529.774 425.842 524.471 427.171C523.92 427.316 523.36 427.424 522.796 427.495L500.887 406.921C500.859 406.847 500.826 406.778 500.797 406.704L499.888 405.926C500.057 405.791 500.236 405.655 500.405 405.52C500.503 405.441 500.606 405.367 500.704 405.288C500.77 405.237 500.838 405.186 500.895 405.136C500.917 405.119 500.94 405.102 500.958 405.09C501.015 405.04 501.074 405 501.127 404.955C502.122 404.191 503.123 403.433 504.131 402.682C504.135 402.677 504.135 402.677 504.144 402.676C511.775 396.871 520.013 392.068 528.687 388.368C528.947 388.262 529.211 388.149 529.481 388.052C533.388 386.477 537.406 385.251 541.496 384.385C543.737 383.92 545.999 383.577 548.272 383.359C554.146 382.808 560.064 383.263 565.808 384.706C577.259 387.586 587.732 394.405 593.936 405.04C594.094 405.312 594.248 405.58 594.403 405.857Z" fill="#E6E6E6"/>
<path d="M594.113 406.113C581.326 398.218 566.572 394.893 551.944 396.61C548.789 396.919 545.698 397.765 542.786 399.118C539.989 400.535 537.592 402.739 535.846 405.501C534.17 408.04 532.726 410.848 530.51 412.901C529.362 413.933 528.025 414.691 526.587 415.124C525.149 415.557 523.643 415.655 522.168 415.413C518.478 414.912 515.173 413.004 512.002 411.015C508.48 408.808 504.855 406.454 500.701 406.133C500.198 406.094 500.283 405.249 500.785 405.288C508.012 405.847 513.292 412.112 520.096 414.104C523.27 415.034 526.722 414.931 529.446 412.736C531.827 410.815 533.318 407.921 534.994 405.334C536.662 402.613 538.918 400.377 541.566 398.82C544.405 397.31 547.461 396.336 550.601 395.939C557.658 394.921 564.819 395.114 571.821 396.509C579.82 398.053 587.517 401.07 594.578 405.43C595.015 405.7 594.547 406.381 594.113 406.113Z" fill="white"/>
<path d="M556.624 395.756C556.691 393.055 557.642 390.469 559.306 388.458C560.969 386.447 563.238 385.143 565.707 384.779C566.206 384.707 566.333 385.545 565.832 385.617C563.533 385.952 561.42 387.167 559.874 389.043C558.328 390.919 557.452 393.332 557.403 395.848C557.392 396.394 556.613 396.3 556.624 395.756Z" fill="white"/>
<path d="M536.539 404.092C540.008 408.135 544.755 410.612 549.833 411.029C550.336 411.07 550.251 411.914 549.749 411.873C544.465 411.429 539.53 408.841 535.929 404.624C535.586 404.222 536.198 403.692 536.539 404.092Z" fill="white"/>
<path d="M579.247 398.993C579.02 400.032 579.035 401.116 579.289 402.147C579.544 403.179 580.031 404.125 580.707 404.902C581.054 405.3 580.442 405.83 580.096 405.435C579.354 404.573 578.817 403.527 578.533 402.388C578.249 401.249 578.227 400.052 578.468 398.901C578.482 398.791 578.535 398.69 578.615 398.62C578.695 398.55 578.797 398.516 578.899 398.525C579.003 398.537 579.097 398.594 579.162 398.681C579.227 398.769 579.257 398.881 579.247 398.993Z" fill="white"/>
<path d="M181.255 368.614C192.068 350.827 211.411 337.961 230.888 340.729C215.423 356.712 205.669 378.113 203.352 401.145C202.488 410.031 202.38 420.011 196.52 426.292C192.873 430.199 187.563 431.838 182.438 431.894C177.311 431.95 172.273 430.585 167.301 429.23L166.056 429.549C166.886 408.263 170.442 386.401 181.255 368.614Z" fill="#E6E6E6"/>
<path d="M230.89 341.176C215.808 347.766 203.024 359.343 194.354 374.261C192.435 377.436 190.99 380.92 190.071 384.584C189.282 388.184 189.397 391.948 190.403 395.484C191.28 398.802 192.532 402.085 192.65 405.576C192.686 407.364 192.373 409.14 191.732 410.787C191.091 412.435 190.136 413.917 188.93 415.136C185.997 418.259 182.204 420.052 178.439 421.666C174.259 423.458 169.89 425.248 166.783 428.929C166.406 429.375 165.79 428.715 166.166 428.27C171.573 421.865 180.201 421.207 186.462 416.184C189.383 413.841 191.671 410.528 191.787 406.462C191.889 402.907 190.601 399.521 189.686 396.17C188.658 392.736 188.421 389.081 188.995 385.525C189.739 381.822 191.058 378.284 192.897 375.061C196.929 367.734 201.998 361.141 207.919 355.522C214.643 349.068 222.336 343.91 230.664 340.27C231.18 340.045 231.402 340.953 230.89 341.176Z" fill="white"/>
<path d="M196.885 369.279C194.775 367.362 193.362 364.693 192.898 361.75C192.434 358.807 192.95 355.781 194.354 353.212C194.64 352.694 195.396 353.151 195.11 353.67C193.799 356.059 193.319 358.878 193.756 361.618C194.193 364.357 195.518 366.837 197.493 368.61C197.922 368.996 197.312 369.663 196.885 369.279Z" fill="white"/>
<path d="M189.754 393.866C195.365 393.383 200.601 390.625 204.42 386.142C204.798 385.697 205.414 386.357 205.036 386.801C201.055 391.459 195.6 394.317 189.761 394.805C189.204 394.851 189.201 393.912 189.754 393.866Z" fill="white"/>
<path d="M215 350.252C215.674 351.178 216.549 351.909 217.548 352.377C218.547 352.846 219.637 353.038 220.721 352.937C221.277 352.883 221.279 353.823 220.727 353.876C219.529 353.982 218.325 353.768 217.221 353.253C216.117 352.737 215.145 351.937 214.392 350.921C214.314 350.831 214.27 350.713 214.269 350.59C214.268 350.466 214.31 350.347 214.388 350.257C214.468 350.169 214.578 350.119 214.693 350.118C214.807 350.117 214.918 350.165 215 350.252Z" fill="white"/>
<path d="M266.257 401.819C265.91 401.864 265.564 401.908 265.215 401.959C260.564 402.58 255.967 403.61 251.47 405.039C251.12 405.143 250.768 405.255 250.422 405.37C239.621 408.936 229.525 414.647 220.646 422.211C217.116 425.225 213.802 428.525 210.733 432.084C206.495 436.999 202.261 442.694 196.93 445.714C196.377 446.036 195.807 446.321 195.221 446.566L166.511 431.172C166.462 431.101 166.41 431.038 166.36 430.967L165.188 430.409C165.334 430.214 165.49 430.014 165.637 429.819C165.721 429.705 165.812 429.595 165.897 429.481C165.955 429.406 166.014 429.331 166.062 429.26C166.082 429.235 166.101 429.21 166.118 429.193C166.166 429.121 166.219 429.061 166.264 428.997C167.132 427.88 168.008 426.768 168.894 425.66C168.897 425.653 168.897 425.653 168.907 425.649C175.673 417.227 183.146 409.344 191.485 402.942C191.736 402.749 191.99 402.549 192.254 402.364C196.028 399.501 200.011 396.977 204.164 394.817C206.441 393.643 208.772 392.594 211.148 391.675C217.289 389.313 223.735 388.014 230.249 387.825C243.234 387.45 256.185 391.583 265.548 401.086C265.787 401.329 266.02 401.569 266.257 401.819Z" fill="#E6E6E6"/>
<path d="M266.012 402.18C250.311 397.594 233.678 398.489 218.474 404.739C215.178 406.022 212.09 407.86 209.323 410.185C206.694 412.545 204.696 415.625 203.537 419.105C202.396 422.327 201.572 425.765 199.729 428.63C198.765 430.081 197.529 431.295 196.103 432.191C194.676 433.088 193.091 433.648 191.451 433.834C187.375 434.412 183.352 433.367 179.449 432.198C175.117 430.899 170.635 429.476 166.11 430.385C165.562 430.496 165.437 429.567 165.984 429.457C173.857 427.873 181.111 432.981 188.898 433.059C192.532 433.096 196.198 431.945 198.547 428.774C200.602 426.002 201.454 422.457 202.583 419.184C203.669 415.771 205.508 412.698 207.941 410.234C210.59 407.763 213.608 405.799 216.865 404.427C224.152 401.209 231.86 399.255 239.707 398.634C248.658 397.872 257.664 398.777 266.335 401.309C266.871 401.465 266.545 402.336 266.012 402.18Z" fill="white"/>
<path d="M223.26 402.414C222.639 399.505 222.993 396.452 224.256 393.799C225.52 391.146 227.612 389.067 230.158 387.933C230.674 387.705 231.025 388.564 230.508 388.792C228.135 389.844 226.186 391.781 225.014 394.253C223.842 396.726 223.524 399.572 224.117 402.277C224.245 402.865 223.387 402.999 223.26 402.414Z" fill="white"/>
<path d="M203.917 417.389C208.665 420.667 214.377 421.884 219.915 420.798C220.463 420.69 220.589 421.619 220.041 421.727C214.276 422.846 208.334 421.566 203.401 418.143C202.931 417.816 203.45 417.064 203.917 417.389Z" fill="white"/>
<path d="M248.286 399.05C248.31 400.23 248.604 401.385 249.141 402.411C249.678 403.437 250.442 404.303 251.363 404.93C251.837 405.25 251.318 406.002 250.847 405.684C249.832 404.986 248.989 404.029 248.394 402.896C247.798 401.764 247.467 400.49 247.43 399.187C247.417 399.065 247.447 398.941 247.515 398.842C247.583 398.743 247.683 398.676 247.795 398.654C247.908 398.637 248.023 398.668 248.115 398.742C248.207 398.817 248.269 398.927 248.286 399.05Z" fill="white"/>
<path d="M258.21 235.26C258.928 234.486 259.48 233.55 259.828 232.52C260.176 231.489 260.312 230.388 260.225 229.295C260.138 228.201 259.832 227.141 259.326 226.19C258.821 225.239 258.13 224.42 257.301 223.789L268.602 164.475L256.41 168.646L247.318 226.028C246.434 227.609 246.116 229.485 246.423 231.303C246.73 233.121 247.641 234.753 248.983 235.891C250.326 237.029 252.007 237.593 253.707 237.477C255.408 237.361 257.01 236.572 258.21 235.26Z" fill="#FFB6B6"/>
<path d="M284.331 76.7096L276.779 70.5268C276.779 70.5268 270.116 70.0151 268.936 83.0454C267.756 96.0758 260.368 146.086 260.368 146.086L248.812 204.136L264.809 207.944L277.187 145.298L289.578 102.078L284.331 76.7096Z" fill="#E6E6E6"/>
<path d="M278.577 184.123L242.35 153.573C241.786 153.097 241.419 152.396 241.33 151.626C241.241 150.857 241.438 150.08 241.876 149.467L266.525 115.087C266.965 114.475 267.61 114.077 268.32 113.981C269.03 113.884 269.746 114.097 270.311 114.573L306.539 145.123C307.103 145.6 307.47 146.3 307.558 147.07C307.647 147.839 307.451 148.616 307.012 149.229L282.364 183.609C281.924 184.221 281.278 184.619 280.568 184.715C279.859 184.812 279.143 184.599 278.577 184.123Z" fill="#3F3D56"/>
<path d="M278.378 180.962L245.224 153.004C244.723 152.58 244.397 151.958 244.318 151.275C244.24 150.591 244.414 149.902 244.803 149.357L267.148 118.19C267.539 117.647 268.112 117.294 268.742 117.208C269.373 117.123 270.009 117.312 270.51 117.734L303.665 145.692C304.166 146.116 304.491 146.737 304.57 147.421C304.649 148.105 304.475 148.794 304.085 149.338L281.74 180.506C281.35 181.049 280.776 181.402 280.146 181.488C279.516 181.573 278.88 181.384 278.378 180.962Z" fill="white"/>
<path d="M249.571 152.211C249.445 152.105 249.364 151.95 249.344 151.779C249.324 151.608 249.368 151.435 249.465 151.299L260.738 135.576C260.835 135.44 260.979 135.352 261.136 135.331C261.214 135.32 261.294 135.326 261.369 135.349C261.445 135.371 261.516 135.41 261.578 135.462C261.64 135.515 261.692 135.58 261.731 135.654C261.77 135.728 261.795 135.81 261.805 135.894C261.815 135.979 261.809 136.065 261.788 136.147C261.767 136.229 261.732 136.306 261.683 136.374L250.411 152.097C250.313 152.233 250.17 152.321 250.013 152.342C249.855 152.364 249.696 152.316 249.571 152.211Z" fill="#E4E4E4"/>
<path d="M251.439 153.786C251.314 153.68 251.232 153.525 251.212 153.354C251.193 153.183 251.236 153.011 251.334 152.875L262.606 137.152C262.704 137.016 262.847 136.927 263.005 136.906C263.162 136.885 263.321 136.932 263.447 137.038C263.572 137.144 263.654 137.299 263.673 137.47C263.693 137.641 263.649 137.813 263.552 137.949L252.279 153.672C252.182 153.808 252.038 153.896 251.881 153.918C251.723 153.939 251.564 153.892 251.439 153.786Z" fill="#E4E4E4"/>
<path d="M259.693 146.454C259.568 146.349 259.487 146.193 259.467 146.022C259.447 145.851 259.491 145.679 259.588 145.543L264.474 138.727C264.523 138.66 264.583 138.603 264.651 138.561C264.719 138.519 264.795 138.491 264.873 138.481C264.951 138.47 265.03 138.476 265.106 138.499C265.182 138.521 265.253 138.56 265.316 138.612C265.378 138.665 265.43 138.73 265.469 138.804C265.508 138.879 265.533 138.96 265.542 139.045C265.552 139.13 265.546 139.216 265.525 139.298C265.504 139.381 265.469 139.458 265.42 139.525L260.534 146.34C260.436 146.476 260.293 146.565 260.135 146.586C259.978 146.607 259.819 146.56 259.693 146.454Z" fill="#E4E4E4"/>
<path d="M262.212 159.829C262.087 159.723 262.006 159.568 261.986 159.397C261.966 159.226 262.01 159.054 262.107 158.918L279.903 134.096C279.951 134.029 280.011 133.972 280.08 133.93C280.148 133.888 280.223 133.861 280.301 133.85C280.379 133.84 280.459 133.846 280.534 133.868C280.61 133.891 280.681 133.93 280.743 133.982C280.805 134.034 280.857 134.099 280.896 134.174C280.935 134.248 280.96 134.329 280.97 134.414C280.98 134.499 280.974 134.585 280.953 134.667C280.932 134.749 280.897 134.826 280.849 134.893L263.053 159.715C262.955 159.851 262.812 159.939 262.654 159.961C262.497 159.982 262.338 159.935 262.212 159.829Z" fill="#E4E4E4"/>
<path d="M264.081 161.405C263.955 161.299 263.874 161.143 263.854 160.972C263.834 160.801 263.878 160.629 263.975 160.493L281.771 135.671C281.819 135.604 281.879 135.548 281.948 135.505C282.016 135.463 282.092 135.436 282.17 135.426C282.248 135.415 282.327 135.421 282.403 135.444C282.479 135.466 282.55 135.505 282.612 135.557C282.674 135.61 282.726 135.675 282.765 135.749C282.803 135.823 282.829 135.905 282.838 135.989C282.848 136.074 282.842 136.16 282.821 136.242C282.801 136.325 282.765 136.402 282.717 136.469L264.921 161.29C264.823 161.426 264.68 161.515 264.523 161.536C264.365 161.557 264.206 161.51 264.081 161.405Z" fill="#E4E4E4"/>
<path d="M268.322 164.981C268.196 164.875 268.115 164.72 268.095 164.549C268.075 164.378 268.119 164.205 268.216 164.069L286.012 139.248C286.06 139.18 286.12 139.124 286.189 139.082C286.257 139.04 286.333 139.013 286.411 139.002C286.489 138.991 286.568 138.998 286.644 139.02C286.72 139.043 286.79 139.081 286.853 139.134C286.915 139.186 286.967 139.251 287.006 139.325C287.044 139.399 287.069 139.481 287.079 139.566C287.089 139.65 287.083 139.736 287.062 139.819C287.042 139.901 287.006 139.978 286.958 140.045L269.162 164.867C269.064 165.003 268.921 165.091 268.764 165.112C268.606 165.134 268.447 165.086 268.322 164.981Z" fill="#E4E4E4"/>
<path d="M270.19 166.556C270.065 166.451 269.983 166.295 269.963 166.124C269.944 165.953 269.987 165.781 270.085 165.645L287.88 140.823C287.929 140.756 287.989 140.7 288.057 140.657C288.125 140.615 288.201 140.588 288.279 140.577C288.357 140.567 288.436 140.573 288.512 140.596C288.588 140.618 288.659 140.657 288.721 140.709C288.783 140.762 288.835 140.827 288.874 140.901C288.913 140.975 288.938 141.057 288.948 141.141C288.957 141.226 288.952 141.312 288.931 141.394C288.91 141.476 288.874 141.553 288.826 141.621L271.03 166.442C270.933 166.578 270.789 166.666 270.632 166.688C270.474 166.709 270.315 166.662 270.19 166.556Z" fill="#E4E4E4"/>
<path d="M274.431 170.133C274.306 170.027 274.224 169.871 274.204 169.701C274.185 169.53 274.228 169.357 274.326 169.221L292.121 144.4C292.17 144.332 292.23 144.276 292.298 144.234C292.366 144.192 292.442 144.164 292.52 144.154C292.598 144.143 292.677 144.149 292.753 144.172C292.829 144.195 292.9 144.233 292.962 144.286C293.024 144.338 293.076 144.403 293.115 144.477C293.154 144.551 293.179 144.633 293.189 144.718C293.198 144.802 293.193 144.888 293.172 144.97C293.151 145.053 293.115 145.13 293.067 145.197L275.271 170.019C275.174 170.155 275.03 170.243 274.873 170.264C274.715 170.286 274.556 170.238 274.431 170.133Z" fill="#E4E4E4"/>
<path d="M276.299 171.708C276.174 171.602 276.092 171.447 276.073 171.276C276.053 171.105 276.097 170.933 276.194 170.797L293.99 145.975C294.087 145.84 294.231 145.752 294.388 145.731C294.545 145.71 294.704 145.757 294.829 145.863C294.954 145.968 295.036 146.123 295.056 146.294C295.075 146.464 295.032 146.637 294.935 146.773L277.14 171.594C277.042 171.73 276.899 171.818 276.741 171.84C276.584 171.861 276.425 171.814 276.299 171.708Z" fill="#E4E4E4"/>
<path d="M246.557 200.535C246.692 200.535 246.802 200.415 246.802 200.268C246.802 200.121 246.692 200.001 246.557 200.001C246.421 200.001 246.311 200.121 246.311 200.268C246.311 200.415 246.421 200.535 246.557 200.535Z" fill="white"/>
<path d="M282.39 16.7669C281.525 21.8069 280.106 26.7164 278.165 31.3906C267.048 56.8965 298.707 48.5829 310.021 48.5829C322.391 48.5829 334.227 55.6376 332.419 24.2915C331.647 10.9018 322.391 0 310.021 0C299.455 0 284.599 5.09344 282.39 16.7669Z" fill="#2F2E41"/>
<path d="M321.551 390.847H311.012L305.997 346.759H321.551V390.847Z" fill="#FFB6B6"/>
<path d="M327.114 410.651H319.556L318.207 402.912L314.752 410.651H294.706C293.745 410.651 292.809 410.318 292.035 409.701C291.261 409.083 290.689 408.213 290.403 407.219C290.117 406.224 290.132 405.156 290.445 404.171C290.759 403.185 291.354 402.335 292.145 401.743L308.153 389.752V381.928L324.991 383.018L327.114 410.651Z" fill="#2F2E41"/>
<path d="M384.166 376.422L375.708 383.243L347.426 351.11L359.909 341.043L384.166 376.422Z" fill="#FFB6B6"/>
<path d="M399.526 388.714L393.461 393.605L388.12 388.268L389.606 396.715L373.52 409.688C372.749 410.309 371.815 410.648 370.854 410.653C369.893 410.658 368.956 410.331 368.179 409.717C367.402 409.104 366.826 408.237 366.536 407.244C366.245 406.251 366.255 405.183 366.563 404.196L372.812 384.214L368.507 377.936L382.619 367.914L399.526 388.714Z" fill="#2F2E41"/>
<path d="M287.034 187.939L337.064 179.488L327.114 147.027H287.034V187.939Z" fill="#FFB6B6"/>
<path d="M333.822 163.376C333.822 163.376 353.819 182.113 344.592 235.527L333.329 287.863L364.017 345.647L348.412 354.878L310.594 297.872L293.289 253.848L284.135 176.69L333.822 163.376Z" fill="#2F2E41"/>
<path d="M302.827 266.394L301.625 286.595L305.145 346.416L322.625 352.943L325.936 291.651L302.827 266.394Z" fill="#2F2E41"/>
<path d="M297.453 55.3062L316.792 56.1244L324.5 69.9999L342.084 73.7229L331.587 131.319L333.517 164.103L316.008 163.987C303.389 163.903 291.186 168.875 281.739 177.949L282.263 135.394L274.731 103.627L276.424 70.3174L290.57 68.3996L297.453 55.3062Z" fill="#E6E6E6"/>
<path d="M308.168 48.5769C318.22 48.5769 326.368 39.7392 326.368 28.8373C326.368 17.9355 318.22 9.09778 308.168 9.09778C298.115 9.09778 289.967 17.9355 289.967 28.8373C289.967 39.7392 298.115 48.5769 308.168 48.5769Z" fill="#FFB6B6"/>
<path d="M295.807 8.71555C298.997 6.60684 302.65 5.46613 306.385 5.41273C310.12 5.35933 313.799 6.39519 317.039 8.41199C320.278 10.4288 322.959 13.3525 324.8 16.8773C326.641 20.4021 327.575 24.3987 327.504 28.449C318.23 30.9744 308.487 32.9069 298.597 29.053L296.261 22.8534L294.884 29.0576C291.872 30.3928 288.852 31.5225 285.832 29.0447C285.709 25.0058 286.565 21.0025 288.316 17.4351C290.066 13.8676 292.65 10.8609 295.807 8.71555Z" fill="#2F2E41"/>
<path d="M338.718 203.9L341.172 228.049C341.342 228.651 341.687 229.178 342.155 229.553C342.622 229.928 343.188 230.13 343.769 230.13H355.079C355.66 230.13 356.226 229.928 356.694 229.553C357.162 229.179 357.506 228.651 357.677 228.049L359.709 209.54C360.296 209.852 360.942 210.008 361.596 209.996C362.249 209.984 362.89 209.804 363.467 209.471C364.043 209.138 364.539 208.662 364.912 208.08C365.286 207.499 365.527 206.83 365.616 206.128C365.705 205.426 365.638 204.712 365.423 204.043C365.207 203.374 364.848 202.77 364.375 202.281C363.903 201.792 363.33 201.432 362.704 201.23C362.077 201.028 361.416 200.99 360.774 201.119C360.52 200.794 360.204 200.533 359.848 200.355C359.492 200.176 359.104 200.084 358.712 200.085H341.316C340.891 200.085 340.471 200.193 340.092 200.401C339.712 200.609 339.382 200.91 339.13 201.282C338.877 201.653 338.708 202.083 338.637 202.538C338.565 202.992 338.593 203.459 338.718 203.9ZM360.064 208.288L361.309 203.9C361.453 203.393 361.468 202.854 361.35 202.34C361.404 202.336 361.454 202.322 361.508 202.322C362.289 202.322 363.039 202.659 363.591 203.258C364.144 203.858 364.455 204.671 364.455 205.519C364.455 206.366 364.144 207.179 363.591 207.779C363.039 208.378 362.289 208.715 361.508 208.715C361 208.711 360.503 208.564 360.064 208.288Z" fill="#F86061"/>
<path d="M355.772 230.146C355.059 229.368 354.511 228.43 354.168 227.397C353.824 226.365 353.694 225.263 353.786 224.17C353.878 223.077 354.189 222.019 354.699 221.07C355.208 220.122 355.904 219.306 356.735 218.681L345.713 159.305L357.885 163.543L366.708 220.975C367.584 222.56 367.894 224.438 367.578 226.254C367.263 228.07 366.344 229.698 364.996 230.828C363.648 231.959 361.965 232.514 360.265 232.388C358.565 232.262 356.966 231.465 355.772 230.146Z" fill="#FFB6B6"/>
<path d="M334.532 79.9057L342.084 73.7229C342.084 73.7229 348.747 73.2112 349.927 86.2416C351.107 99.2719 358.495 149.282 358.495 149.282L370.051 207.332L354.054 211.141L341.676 148.494L329.285 105.274L334.532 79.9057Z" fill="#E6E6E6"/>
<path d="M269.351 133.956C271.712 133.956 273.626 131.88 273.626 129.32C273.626 126.759 271.712 124.683 269.351 124.683C266.99 124.683 265.076 126.759 265.076 129.32C265.076 131.88 266.99 133.956 269.351 133.956Z" fill="#F86061"/>
<path d="M133.025 444.634L141.934 444.633L146.173 407.364L133.023 407.364L133.025 444.634Z" fill="#FFB6B6"/>
<path d="M130.752 441.479L133.26 441.479L143.05 437.161L148.298 441.478C151.263 441.478 154.108 442.756 156.205 445.03C158.302 447.304 159.48 450.389 159.48 453.605V453.999L130.753 454L130.752 441.479Z" fill="#2F2E41"/>
<path d="M167.55 438.544L176.241 440.673L187.945 405.331L175.118 402.19L167.55 438.544Z" fill="#FFB6B6"/>
<path d="M165.974 434.925L168.42 435.524L178.848 433.65L183.089 439.116L183.09 439.116C185.983 439.824 188.497 441.75 190.081 444.469C191.664 447.188 192.187 450.478 191.534 453.616L191.454 454L163.432 447.138L165.974 434.925Z" fill="#2F2E41"/>
<path d="M116.714 252.923L124.771 350.819C124.771 350.819 121.752 409.59 131.493 430.272H145.62L152.614 345.451L153.492 288.52L183.779 336.551L164.488 428.885L181.875 430.571L213.178 330.367L178.788 236.299L116.714 252.923Z" fill="#2F2E41"/>
<path d="M125.152 97.0274C136.627 97.0274 145.929 86.9387 145.929 74.4936C145.929 62.0486 136.627 51.9598 125.152 51.9598C113.677 51.9598 104.375 62.0486 104.375 74.4936C104.375 86.9387 113.677 97.0274 125.152 97.0274Z" fill="#FFB8B8"/>
<path d="M161.677 118.501L144.631 110.569L136.334 101.024L115.604 104.649L110.104 114.877L92.3003 132.831L113.16 235.122L112.528 257.463C112.528 257.463 125.879 263.981 183.779 248.973C184.473 248.793 183.02 248.005 183.02 248.005L161.677 118.501Z" fill="#3F3D56"/>
<path d="M103.547 87.2797C103.402 87.0654 103.259 86.8494 103.117 86.6315C103.059 86.7623 103.014 86.8975 102.949 87.0253L103.547 87.2797Z" fill="#2F2E41"/>
<path d="M145.82 58.0111C144.431 54.7298 141.955 52.1353 138.883 50.7432C135.839 49.4114 132.436 49.4146 129.394 50.7522C126.647 48.87 123.595 47.3779 120.381 47.1931C117.167 47.0083 113.768 48.3015 111.787 51.1482C111.345 51.8997 110.843 52.6075 110.286 53.2636C108.694 54.8627 106.274 54.632 104.158 54.305C105.107 55.1873 106.057 56.0696 107.006 56.9519C105.857 57.2774 104.708 57.603 103.559 57.9285C104.9 58.8105 106.241 59.6925 107.582 60.5745C103.689 63.1084 101.92 68.6391 102.387 73.6621C102.829 78.4177 104.946 82.7663 107.477 86.6315C108.486 84.3211 108.269 81.5564 108.252 78.9542C108.235 76.2047 108.683 73.0825 110.715 71.5458C112.085 70.5093 113.847 70.463 115.5 70.4728C123.835 70.5224 132.162 71.0862 140.438 72.1613C141.561 72.214 142.656 72.5585 143.631 73.1657C145.461 74.5199 145.818 77.3145 146.002 79.7663C146.969 75.718 147.442 71.5498 147.409 67.368C147.491 64.1627 146.949 60.9746 145.82 58.0111Z" fill="#2F2E41"/>
<path d="M152.289 321.549C170.349 321.549 184.991 305.67 184.991 286.082C184.991 266.494 170.349 250.615 152.289 250.615C134.228 250.615 119.586 266.494 119.586 286.082C119.586 305.67 134.228 321.549 152.289 321.549Z" fill="white"/>
<path d="M152.289 249.827C150.608 249.827 148.929 249.964 147.267 250.237C146.417 250.371 145.589 250.544 144.767 250.757C138.734 252.265 133.206 255.562 128.8 260.279C124.394 264.996 121.283 270.948 119.814 277.47C118.345 283.993 118.576 290.83 120.481 297.219C122.386 303.608 125.891 309.297 130.604 313.651C131.163 314.164 131.73 314.66 132.319 315.133C136.561 318.564 141.494 320.853 146.712 321.812C151.93 322.77 157.283 322.372 162.33 320.649C167.378 318.926 171.977 315.927 175.747 311.9C179.518 307.872 182.353 302.932 184.018 297.484C185.684 292.036 186.133 286.238 185.329 280.565C184.525 274.892 182.49 269.508 179.392 264.855C176.294 260.201 172.221 256.413 167.509 253.8C162.797 251.188 157.581 249.826 152.289 249.827ZM152.289 320.76C145.49 320.768 138.867 318.412 133.394 314.038C132.798 313.565 132.224 313.076 131.665 312.556C127.073 308.355 123.666 302.836 121.835 296.632C120.003 290.427 119.821 283.788 121.31 277.477C122.798 271.165 125.897 265.436 130.25 260.947C134.604 256.458 140.036 253.391 145.923 252.097C146.736 251.916 147.55 251.774 148.379 251.664C149.676 251.489 150.982 251.402 152.289 251.403C160.769 251.403 168.902 255.057 174.899 261.561C180.895 268.064 184.264 276.885 184.264 286.082C184.264 295.279 180.895 304.1 174.899 310.603C168.902 317.107 160.769 320.76 152.289 320.76Z" fill="#3F3D56"/>
<path d="M136.249 278.989H168.329C169.504 278.989 170.456 277.955 170.456 276.681V276.568C170.456 275.293 169.504 274.26 168.329 274.26H136.249C135.073 274.26 134.121 275.293 134.121 276.568V276.681C134.121 277.955 135.073 278.989 136.249 278.989Z" fill="#F86061"/>
<path d="M136.249 288.446H168.329C169.504 288.446 170.456 287.413 170.456 286.139V286.025C170.456 284.751 169.504 283.718 168.329 283.718H136.249C135.073 283.718 134.121 284.751 134.121 286.025V286.139C134.121 287.413 135.073 288.446 136.249 288.446Z" fill="#F86061"/>
<path d="M136.249 297.904H168.329C169.504 297.904 170.456 296.871 170.456 295.596V295.483C170.456 294.209 169.504 293.175 168.329 293.175H136.249C135.073 293.175 134.121 294.209 134.121 295.483V295.596C134.121 296.871 135.073 297.904 136.249 297.904Z" fill="#F86061"/>
<path d="M518.154 443.431L508.811 443.43L504.367 404.35L518.155 404.351L518.154 443.431Z" fill="#9E616A"/>
<path d="M473.957 443.431L464.615 443.43L460.171 404.35L473.959 404.351L473.957 443.431Z" fill="#9E616A"/>
<path d="M474.286 454L445.558 453.999V453.605C445.559 450.389 446.737 447.304 448.834 445.03C450.931 442.756 453.775 441.478 456.74 441.478H456.741L461.988 437.161L471.779 441.479L474.287 441.479L474.286 454Z" fill="#2F2E41"/>
<path d="M519.681 454L490.953 453.999V453.605C490.953 450.389 492.132 447.304 494.228 445.03C496.325 442.756 499.169 441.478 502.135 441.478H502.136L507.383 437.161L517.174 441.479L519.681 441.479L519.681 454Z" fill="#2F2E41"/>
<path d="M464.793 212.144L450.596 305.904L454.459 319.876L449.389 329.771L456.835 416.674L453.813 423.891L462.257 429.539H479.44L480.352 350.865L484.597 339.314V332.948L493.238 284.975L494.829 352.158L497.342 363.727L495.231 371.965L497.99 377.736L505.317 431.253H524.586L523.095 418.802C524.774 417.881 526.122 416.38 526.928 414.537C527.735 412.694 527.953 410.612 527.55 408.619L526.445 403.162L528.96 387.026L533.538 297.005L532.247 224.369L509.707 205.676L464.793 212.144Z" fill="#2F2E41"/>
<path d="M497.342 91.7452C507.229 91.7452 515.244 83.0527 515.244 72.3301C515.244 61.6075 507.229 52.915 497.342 52.915C487.455 52.915 479.44 61.6075 479.44 72.3301C479.44 83.0527 487.455 91.7452 497.342 91.7452Z" fill="#9E616A"/>
<path d="M458.229 249.351C459.008 248.478 459.601 247.43 459.966 246.282C460.332 245.133 460.461 243.912 460.344 242.704C460.227 241.495 459.867 240.33 459.289 239.288C458.712 238.247 457.931 237.356 457.002 236.678L463.963 208.127L450.552 213.02L445.997 239.382C445.05 241.15 444.733 243.234 445.108 245.239C445.483 247.244 446.522 249.03 448.03 250.259C449.538 251.487 451.409 252.074 453.289 251.906C455.168 251.739 456.926 250.83 458.229 249.351Z" fill="#9E616A"/>
<path d="M465.555 112.274L462.676 111.626L460.221 113.1C460.221 113.1 453.363 123.017 453.363 132.108C453.363 141.198 444.981 228.799 444.981 228.799L460.221 236.237L472.413 167.644L465.555 112.274Z" fill="#E6E6E6"/>
<path d="M513.019 58.0953C513.019 58.0953 517.701 48.3878 507.4 47.5053C507.4 47.5053 498.619 38.8658 489.668 45.9258C489.668 45.9258 484.786 45.9258 482.116 51.9178C482.116 51.9178 478.276 50.3384 477.432 54.5653C477.432 54.5653 474.622 63.3903 477.432 71.3329C480.242 79.2754 481.175 80.1579 481.175 80.1579C481.175 80.1579 476.558 63.5059 487.796 62.6234C499.035 61.7409 511.611 54.1241 512.547 63.8316C513.484 73.5391 514.893 75.931 514.893 75.931C514.893 75.931 523.789 62.0666 513.019 58.0953Z" fill="#2F2E41"/>
<path d="M578.413 329.771C577.062 329.773 575.758 329.234 574.751 328.256L520.575 275.954C519.483 274.897 518.822 273.414 518.737 271.83C518.652 270.246 519.15 268.69 520.122 267.504L554.828 225.22C555.802 224.035 557.169 223.319 558.63 223.226C560.091 223.134 561.525 223.674 562.619 224.728L616.796 277.032C617.889 278.087 618.551 279.57 618.636 281.154C618.721 282.739 618.222 284.295 617.249 285.481L582.543 327.765C582.062 328.354 581.479 328.833 580.826 329.176C580.173 329.519 579.465 329.717 578.741 329.761C578.631 329.768 578.522 329.771 578.413 329.771Z" fill="white"/>
<path d="M578.413 330.156C576.975 330.158 575.587 329.584 574.515 328.544L520.339 276.241C519.177 275.117 518.474 273.538 518.383 271.852C518.293 270.166 518.823 268.51 519.857 267.248L554.563 224.963C555.6 223.703 557.055 222.941 558.609 222.843C560.164 222.745 561.691 223.319 562.855 224.44L617.032 276.744C618.195 277.867 618.9 279.446 618.99 281.132C619.08 282.818 618.549 284.475 617.514 285.737L582.808 328.021C582.296 328.648 581.675 329.158 580.981 329.523C580.286 329.887 579.532 330.099 578.761 330.145C578.645 330.152 578.529 330.156 578.413 330.156ZM558.952 224.369C558.323 224.368 557.701 224.511 557.127 224.79C556.553 225.069 556.041 225.477 555.623 225.986L520.917 268.271C520.132 269.228 519.73 270.484 519.799 271.763C519.867 273.042 520.401 274.239 521.282 275.092L575.459 327.394C575.896 327.816 576.405 328.141 576.957 328.349C577.51 328.558 578.095 328.646 578.679 328.609C579.263 328.572 579.835 328.411 580.361 328.135C580.888 327.858 581.359 327.472 581.748 326.998L616.454 284.714C617.24 283.757 617.642 282.5 617.574 281.221C617.505 279.942 616.971 278.745 616.089 277.893L561.912 225.59C561.097 224.802 560.044 224.368 558.952 224.369Z" fill="#3F3D56"/>
<path d="M598.059 289.726C597.474 289.727 596.909 289.494 596.472 289.071L553.946 248.015C553.71 247.79 553.518 247.516 553.381 247.209C553.243 246.903 553.163 246.57 553.144 246.23C553.125 245.89 553.169 245.549 553.272 245.227C553.375 244.905 553.535 244.608 553.744 244.353C553.953 244.099 554.206 243.892 554.489 243.743C554.772 243.595 555.079 243.509 555.393 243.49C555.707 243.471 556.021 243.519 556.318 243.631C556.614 243.744 556.887 243.919 557.121 244.147L599.648 285.203C600.01 285.552 600.265 286.012 600.38 286.522C600.495 287.032 600.464 287.568 600.292 288.059C600.12 288.549 599.814 288.972 599.415 289.269C599.016 289.567 598.543 289.726 598.059 289.726Z" fill="#F86061"/>
<path d="M589.947 299.608C589.362 299.609 588.797 299.376 588.361 298.954L545.834 257.898C545.6 257.672 545.409 257.398 545.273 257.092C545.136 256.786 545.056 256.453 545.038 256.114C545.02 255.774 545.064 255.434 545.167 255.113C545.27 254.792 545.43 254.496 545.639 254.242C545.847 253.988 546.1 253.781 546.382 253.633C546.664 253.485 546.971 253.398 547.284 253.379C547.597 253.359 547.91 253.406 548.206 253.518C548.503 253.63 548.776 253.804 549.01 254.03L591.537 295.086C591.898 295.435 592.154 295.895 592.269 296.405C592.384 296.915 592.353 297.451 592.18 297.942C592.008 298.432 591.702 298.854 591.303 299.152C590.904 299.45 590.431 299.609 589.947 299.608Z" fill="#F86061"/>
<path d="M581.836 309.492C581.25 309.493 580.685 309.26 580.249 308.837L537.722 267.782C537.487 267.556 537.296 267.282 537.159 266.975C537.022 266.669 536.942 266.337 536.924 265.997C536.906 265.657 536.949 265.317 537.052 264.995C537.155 264.674 537.316 264.377 537.524 264.123C537.733 263.869 537.986 263.662 538.268 263.514C538.551 263.366 538.858 263.279 539.171 263.26C539.484 263.24 539.798 263.288 540.094 263.4C540.391 263.512 540.664 263.686 540.898 263.913L583.424 304.969C583.786 305.318 584.042 305.778 584.157 306.288C584.272 306.798 584.241 307.334 584.069 307.825C583.896 308.315 583.59 308.738 583.192 309.035C582.793 309.333 582.32 309.492 581.836 309.492Z" fill="#F86061"/>
<path d="M533.203 251.036C532.657 249.975 532.333 248.797 532.252 247.585C532.171 246.374 532.337 245.157 532.736 244.022C533.136 242.888 533.76 241.861 534.565 241.016C535.37 240.171 536.336 239.528 537.395 239.132L537.441 209.6L549.241 218.07L547.388 244.815C547.884 246.789 547.695 248.891 546.858 250.724C546.02 252.556 544.592 253.992 542.843 254.759C541.095 255.526 539.147 255.57 537.371 254.884C535.594 254.198 534.111 252.829 533.203 251.036Z" fill="#9E616A"/>
<path d="M534.294 120.366L539.565 114.856L543.438 117.887C543.438 117.887 547.248 122.846 550.296 137.721C553.344 152.597 550.296 234.413 550.296 234.413L533.532 231.933L535.818 188.959L528.96 152.597L534.294 120.366Z" fill="#E6E6E6"/>
<path d="M542.078 116.2L524.317 106.999L512.259 94.8695L490.271 94.691L483.178 104.691L464.453 111.59L467.574 181.617L465.446 187.002C465.446 187.002 466.928 188.454 467.606 189.266C468.283 190.079 466.67 196.879 466.67 196.879L465.76 204.278L468.283 206.233L465.003 210.435L464.189 217.058C464.189 217.058 521.44 201.625 532.257 227.191C532.829 228.541 531.422 215.34 531.422 215.34L530.014 205.676L531.41 197.002L533.538 194.694L529.969 190.824L532.257 172.459L542.078 116.2Z" fill="#3F3D56"/>
<path d="M139.312 271.444C139.753 270.23 139.943 268.926 139.869 267.624C139.795 266.322 139.458 265.054 138.883 263.908C138.308 262.762 137.509 261.767 136.541 260.993C135.573 260.219 134.46 259.684 133.281 259.427L129.335 228.007L117.896 238.852L123.397 267.026C123.129 269.203 123.607 271.41 124.741 273.231C125.874 275.051 127.583 276.357 129.545 276.902C131.507 277.446 133.585 277.191 135.385 276.186C137.185 275.18 138.582 273.493 139.312 271.444Z" fill="#FFB8B8"/>
<path d="M94.4954 132.257L91.3948 132.901L89.5207 135.46C89.5207 135.46 86.4887 148.358 89.9426 157.371C93.3965 166.385 118.368 256.987 118.368 256.987L136.305 257.551L122.332 184.092L94.4954 132.257Z" fill="#3F3D56"/>
<path d="M165.206 266.835C164.38 265.887 163.756 264.754 163.377 263.516C162.998 262.278 162.874 260.965 163.014 259.669C163.153 258.374 163.553 257.127 164.185 256.017C164.817 254.907 165.666 253.961 166.672 253.245L159.531 222.496L173.873 227.933L178.455 256.299C179.452 258.211 179.767 260.453 179.342 262.6C178.916 264.748 177.779 266.651 176.146 267.949C174.513 269.248 172.497 269.852 170.481 269.647C168.465 269.441 166.588 268.441 165.206 266.835Z" fill="#FFB8B8"/>
<path d="M158.94 119.562L162.038 118.906L164.657 120.522C164.657 120.522 171.905 131.264 171.799 141.024C171.692 150.784 179.67 244.952 179.67 244.952L163.221 252.728L150.931 178.916L158.94 119.562Z" fill="#3F3D56"/>
</g>
<defs>
<clipPath id="clip0_1_352">
<rect width="619" height="454" fill="white"/>
</clipPath>
</defs>
</svg>
