<svg width="508" height="550" viewBox="0 0 508 550" fill="none" xmlns="http://www.w3.org/2000/svg">
<g clip-path="url(#clip0_1_158)">
<path d="M508 488.22H371.65V486.574C407.344 486.574 441.576 473.355 466.816 449.826C492.055 426.297 506.234 394.384 506.234 361.109V272.4H508V488.22Z" fill="#F2F2F2"/>
<path d="M135.963 167.594C132.339 168.881 128.637 169.972 124.878 170.862C119.912 171.99 117.108 172.513 112.315 170.779C112.146 170.718 111.985 170.658 111.834 170.599C102.749 166.998 94.9824 161.012 89.4803 153.37C83.9783 145.729 80.9778 136.761 80.8442 127.559C80.8202 127.243 80.8202 126.911 80.8202 126.587C80.8155 125.028 80.8955 123.469 81.0598 121.917C81.2698 119.802 81.6326 117.704 82.1457 115.635L82.0978 115.627C78.2171 111.928 76.7239 106.86 77.219 101.769C77.5581 98.3167 78.7333 94.9816 80.6559 92.0146C82.5785 89.0476 85.1983 86.5261 88.3181 84.64C93.2074 81.7744 98.7202 79.9603 104.456 79.3299C105.996 79.1643 107.545 79.0805 109.095 79.0789H123.66C126.668 78.4224 129.724 77.9733 132.802 77.7352H132.826C162.139 75.4686 185.256 93.5848 183.1 115.627C183.084 115.651 183.06 115.675 183.044 115.7C182.421 116.647 181.87 117.545 181.383 118.403C180.912 119.205 180.513 119.974 180.169 120.702C177.494 126.336 190.207 213.747 185.647 215.075C183.052 215.828 172.592 150.783 174.468 163.151C176.832 178.669 149.468 162.94 135.963 167.594Z" fill="#2F2E41"/>
<path d="M180.121 325.608L220.755 406.307L64.4473 391.549L97.0757 314.079L180.121 325.608Z" fill="#FFB6B6"/>
<path d="M261.69 487.407C234.509 495.841 205.865 499.418 177.261 497.949L164.823 479.144C164.823 479.144 164.302 486.148 163.525 496.854C149.909 495.383 136.47 492.727 123.385 488.921C98.57 481.687 75.3087 470.478 51.7297 460.142C46.9539 433.602 45.1618 392.676 71.5657 368.851L213.684 393.128C213.684 393.128 236.487 409.028 230.387 414.723C224.287 420.41 223.342 419.529 227.35 423.265C231.358 427.001 240.018 431.997 240.106 435.264C240.141 436.54 249.861 459.673 261.69 487.407Z" fill="#2F2E41"/>
<path d="M155.304 169.667L120.969 171.9L98.7765 191.892L91.0042 193.185C84.018 194.346 77.7317 197.857 73.3374 203.052C68.9431 208.246 66.7464 214.764 67.1638 221.368C68.7625 246.618 72.342 284.347 79.8235 296.588C91.4243 315.568 101.006 309.613 91.4243 315.568C81.8423 321.523 75.4092 316.843 79.8235 326.255C84.2378 335.666 73.8573 347.738 73.8573 347.738L69.725 351.59L74.1078 353.265L213.76 370.205C213.76 370.205 201.685 319.592 209.237 307.158C216.789 294.725 235.099 257.141 218.757 242.435L202.779 190.018L175.295 182.461L155.304 169.667Z" fill="#F86061"/>
<path d="M363.153 377.401C360.855 377.333 358.6 376.8 356.545 375.84C354.489 374.88 352.682 373.515 351.248 371.84C349.815 370.165 348.788 368.219 348.24 366.138C347.692 364.056 347.636 361.889 348.075 359.785L282.567 318.426L290.383 298.722L367.802 348.374C371.546 349.327 374.785 351.526 376.905 354.556C379.026 357.585 379.88 361.235 379.307 364.813C378.734 368.391 376.773 371.648 373.796 373.968C370.818 376.288 367.031 377.509 363.153 377.401Z" fill="#FFB6B6"/>
<path d="M178.125 187.542L168.606 191.056L219.385 283.51L324.505 350.309L339.658 326.434L259.639 262L227.603 204.724C223.095 196.663 215.542 190.446 206.404 187.273C197.266 184.099 187.191 184.195 178.125 187.542Z" fill="#F86061"/>
<path d="M136.35 161.536C155.391 161.536 170.827 147.146 170.827 129.395C170.827 111.643 155.391 97.2532 136.35 97.2532C117.308 97.2532 101.872 111.643 101.872 129.395C101.872 147.146 117.308 161.536 136.35 161.536Z" fill="#FFB6B6"/>
<path d="M166.331 115.803C165.757 116.086 165.19 116.346 164.615 116.607C164.016 116.875 163.417 117.143 162.81 117.396C151.272 122.271 141.873 122.815 136.172 115.803C136.016 112.114 135.125 108.484 133.545 105.098C133.824 108.882 132.755 112.645 130.503 115.803H119.02C107.195 123.12 101.126 129.842 109.335 153.863C109.87 155.442 113.535 211.509 114.581 215.819C96.6784 209.417 81.2354 141.447 80.8442 123.537C80.8202 123.247 80.8202 122.941 80.8202 122.644C80.8156 121.209 80.8955 119.775 81.0598 118.349C81.2705 116.401 81.6334 114.47 82.1457 112.572L82.0978 112.565C80.2763 110.941 78.8868 108.944 78.0397 106.731C77.1927 104.519 76.9117 102.152 77.219 99.8206C80.2222 96.1548 83.9387 93.0488 88.1744 90.6646C92.0259 88.9259 96.0406 87.5206 100.168 86.4663C100.272 86.4439 100.359 86.4216 100.463 86.3993C101.725 86.0792 103.018 85.7889 104.312 85.5358C106.978 85.0146 109.673 84.6344 112.385 84.3969C112.584 84.3894 112.776 84.3745 112.952 84.3745C114.037 84.3752 115.101 84.6477 116.034 85.1636C116.042 85.1636 116.042 85.171 116.058 85.171C116.954 85.6703 117.698 86.3764 118.217 87.2212C118.735 88.0661 119.012 89.0212 119.02 89.9947H131.812C132.283 89.9947 132.755 90.0096 133.226 90.0319C151.04 90.6944 165.357 97.7959 166.276 114.12C166.316 114.686 166.331 115.237 166.331 115.803Z" fill="#2F2E41"/>
<path d="M90.7031 117.095C103.248 117.095 113.417 107.615 113.417 95.92C113.417 84.2255 103.248 74.7451 90.7031 74.7451C78.1585 74.7451 67.989 84.2255 67.989 95.92C67.989 107.615 78.1585 117.095 90.7031 117.095Z" fill="#2F2E41"/>
<path d="M121.887 86.126C119.307 97.5705 106.575 104.415 94.3954 101.615C88.5464 100.271 83.51 96.8152 80.3941 92.0089C77.2781 87.2025 76.3379 81.4391 77.7802 75.9865C80.7836 64.6321 95.5653 67.9054 105.272 60.4972C119.003 50.0171 125.367 70.6922 121.887 86.126Z" fill="#2F2E41"/>
<path d="M71.4197 404.696C90.7785 331.101 129.136 267.844 192.661 218.284C195.12 214.513 199.082 211.806 203.679 210.756C208.276 209.706 213.133 210.398 217.183 212.681L368.198 298.041C372.243 300.333 375.147 304.027 376.273 308.312C377.4 312.598 376.657 317.125 374.208 320.901C349.961 396.417 313.645 461.946 252.966 507.313C250.508 511.083 246.545 513.791 241.948 514.841C237.351 515.891 232.495 515.199 228.445 512.915L77.4296 427.556C73.3851 425.264 70.481 421.57 69.3543 417.284C68.2277 412.999 68.9704 408.472 71.4197 404.696Z" fill="#F2F2F2"/>
<path opacity="0.2" d="M98.2614 429.499C94.2169 427.207 91.3129 423.513 90.1862 419.227C89.0596 414.942 89.8024 410.415 92.2518 406.639C111.61 333.044 149.968 269.787 213.493 220.227C215.121 217.759 217.418 215.735 220.154 214.361L217.183 212.681C213.133 210.398 208.276 209.706 203.679 210.756C199.082 211.806 195.12 214.513 192.661 218.283C129.136 267.844 90.7787 331.101 71.42 404.696C68.9706 408.472 68.2278 412.999 69.3544 417.284C70.481 421.57 73.3851 425.263 77.4296 427.555L228.445 512.915C231.133 514.423 234.201 515.241 237.337 515.288C240.474 515.334 243.568 514.606 246.305 513.179L98.2614 429.499Z" fill="black"/>
<path d="M275.364 388.381L173.995 331.441C172.385 330.534 171.227 329.068 170.775 327.365C170.323 325.662 170.615 323.862 171.586 322.359C172.557 320.857 174.128 319.775 175.954 319.352C177.78 318.928 179.712 319.198 181.325 320.101L282.693 377.041C284.3 377.95 285.455 379.416 285.904 381.117C286.353 382.818 286.061 384.616 285.091 386.116C284.121 387.617 282.553 388.698 280.73 389.122C278.906 389.547 276.977 389.28 275.364 388.381Z" fill="white"/>
<path d="M216.394 312.873L194.093 300.347C192.477 299.445 191.311 297.982 190.852 296.28C190.393 294.577 190.678 292.774 191.645 291.267C192.612 289.761 194.181 288.674 196.008 288.246C197.834 287.818 199.768 288.084 201.384 288.985L201.423 289.007L223.724 301.533C225.331 302.442 226.486 303.908 226.935 305.609C227.385 307.311 227.093 309.109 226.123 310.61C225.153 312.111 223.584 313.192 221.76 313.616C219.937 314.04 218.007 313.773 216.394 312.873Z" fill="white"/>
<path d="M259.253 413.308L157.884 356.368C156.272 355.463 155.111 353.998 154.657 352.295C154.203 350.593 154.492 348.791 155.461 347.288C156.431 345.784 158.001 344.7 159.827 344.275C161.653 343.85 163.585 344.117 165.199 345.02L165.214 345.028L266.582 401.968C268.189 402.877 269.343 404.342 269.793 406.043C270.242 407.744 269.95 409.542 268.98 411.043C268.01 412.544 266.442 413.625 264.619 414.049C262.795 414.473 260.866 414.207 259.253 413.308Z" fill="white"/>
<path d="M288.237 281.02C304.589 281.02 317.845 268.662 317.845 253.418C317.845 238.174 304.589 225.817 288.237 225.817C271.885 225.817 258.63 238.174 258.63 253.418C258.63 268.662 271.885 281.02 288.237 281.02Z" fill="#3F3D56"/>
<path d="M237.201 549.177C272.151 549.177 300.483 522.764 300.483 490.183C300.483 457.601 272.151 431.189 237.201 431.189C202.252 431.189 173.919 457.601 173.919 490.183C173.919 522.764 202.252 549.177 237.201 549.177Z" fill="white"/>
<path d="M237.201 550C224.511 550 212.105 546.492 201.553 539.919C191.001 533.346 182.777 524.004 177.921 513.074C173.064 502.144 171.793 490.117 174.269 478.514C176.745 466.91 182.856 456.252 191.83 447.886C200.803 439.521 212.236 433.824 224.683 431.516C237.13 429.208 250.031 430.392 261.756 434.919C273.48 439.447 283.502 447.114 290.552 456.95C297.603 466.787 301.366 478.352 301.366 490.183C301.347 506.042 294.581 521.246 282.552 532.46C270.522 543.674 254.213 549.982 237.201 550ZM237.201 432.012C224.86 432.012 212.796 435.424 202.534 441.816C192.272 448.208 184.275 457.293 179.552 467.922C174.829 478.552 173.593 490.248 176.001 501.532C178.409 512.816 184.352 523.181 193.078 531.316C201.805 539.452 212.924 544.992 225.028 547.237C237.132 549.481 249.679 548.329 261.081 543.926C272.483 539.523 282.228 532.067 289.085 522.501C295.941 512.935 299.601 501.688 299.601 490.183C299.582 474.76 293.002 459.974 281.303 449.069C269.605 438.164 253.745 432.029 237.201 432.012Z" fill="#3F3D56"/>
<path d="M228.568 520.887C227.475 520.887 226.398 520.649 225.42 520.194C224.443 519.738 223.593 519.076 222.937 518.261L205.673 496.802C205.118 496.112 204.713 495.327 204.483 494.492C204.253 493.657 204.202 492.788 204.332 491.934C204.463 491.081 204.772 490.26 205.243 489.518C205.714 488.776 206.338 488.127 207.078 487.61C207.818 487.093 208.66 486.716 209.556 486.503C210.452 486.289 211.384 486.242 212.3 486.364C213.215 486.486 214.096 486.776 214.891 487.216C215.687 487.655 216.382 488.237 216.936 488.927L228.231 502.966L257.24 462.401C257.753 461.683 258.412 461.068 259.18 460.588C259.949 460.109 260.81 459.775 261.717 459.606C262.623 459.437 263.557 459.436 264.464 459.603C265.37 459.77 266.233 460.102 267.002 460.58C267.771 461.058 268.432 461.673 268.946 462.389C269.461 463.105 269.819 463.909 270 464.754C270.181 465.599 270.182 466.469 270.003 467.314C269.824 468.16 269.467 468.964 268.955 469.681L234.426 517.964C233.801 518.837 232.961 519.558 231.976 520.066C230.991 520.575 229.89 520.855 228.764 520.884C228.699 520.886 228.634 520.887 228.568 520.887Z" fill="#F86061"/>
<path d="M441.572 191.228C444.086 191.028 446.004 189.543 445.854 187.912C445.705 186.282 443.545 185.122 441.03 185.323C438.515 185.523 436.598 187.008 436.748 188.638C436.897 190.269 439.057 191.429 441.572 191.228Z" fill="white"/>
<path d="M469.865 182.281C472.38 182.08 474.297 180.596 474.148 178.965C473.998 177.334 471.838 176.175 469.324 176.375C466.809 176.576 464.892 178.06 465.041 179.691C465.191 181.322 467.351 182.481 469.865 182.281Z" fill="#3F3D56"/>
<path d="M428.16 171.105C430.675 170.905 432.592 169.42 432.442 167.789C432.293 166.158 430.133 164.999 427.618 165.199C425.104 165.4 423.187 166.884 423.336 168.515C423.486 170.146 425.645 171.305 428.16 171.105Z" fill="#FF6584"/>
<path d="M416.292 164.621C417.374 164.393 417.967 163.032 417.615 161.582C417.264 160.131 416.101 159.14 415.019 159.368C413.937 159.596 413.344 160.957 413.696 162.407C414.047 163.858 415.21 164.849 416.292 164.621Z" fill="#E6E6E6"/>
<path d="M407.842 148.879C408.924 148.651 409.517 147.29 409.165 145.84C408.814 144.389 407.651 143.398 406.569 143.626C405.487 143.854 404.894 145.215 405.246 146.665C405.597 148.116 406.76 149.107 407.842 148.879Z" fill="#3F3D56"/>
<path d="M448.383 170.986C449.465 170.758 450.058 169.397 449.706 167.947C449.355 166.496 448.192 165.505 447.11 165.733C446.027 165.961 445.435 167.322 445.787 168.772C446.138 170.223 447.301 171.214 448.383 170.986Z" fill="#E6E6E6"/>
<path d="M436.025 180.55C437.107 180.322 437.7 178.961 437.348 177.511C436.997 176.06 435.834 175.069 434.752 175.297C433.67 175.525 433.077 176.886 433.429 178.336C433.78 179.787 434.943 180.778 436.025 180.55Z" fill="#FF6584"/>
<path d="M458.523 188.339C459.605 188.111 460.197 186.751 459.846 185.3C459.494 183.85 458.332 182.859 457.25 183.087C456.167 183.315 455.575 184.676 455.926 186.126C456.278 187.576 457.44 188.567 458.523 188.339Z" fill="#3F3D56"/>
<path d="M324.757 69.2877C325.189 67.7011 323.555 65.9463 321.108 65.3684C318.662 64.7904 316.329 65.608 315.898 67.1946C315.466 68.7812 317.1 70.5359 319.547 71.1139C321.993 71.6919 324.326 70.8743 324.757 69.2877Z" fill="white"/>
<path d="M294.881 69.1079C295.312 67.5213 293.678 65.7666 291.232 65.1886C288.786 64.6106 286.453 65.4283 286.021 67.0149C285.59 68.6015 287.224 70.3562 289.67 70.9342C292.117 71.5122 294.45 70.6945 294.881 69.1079Z" fill="#3F3D56"/>
<path d="M330.364 92.3951C330.795 90.8085 329.161 89.0538 326.715 88.4758C324.268 87.8978 321.936 88.7154 321.504 90.302C321.073 91.8886 322.707 93.6434 325.153 94.2213C327.6 94.7993 329.932 93.9817 330.364 92.3951Z" fill="#FF6584"/>
<path d="M337.328 101.108C337.505 99.6304 336.755 98.3393 335.652 98.2244C334.55 98.1095 333.512 99.2144 333.335 100.692C333.158 102.17 333.908 103.461 335.011 103.576C336.114 103.691 337.151 102.586 337.328 101.108Z" fill="#E6E6E6"/>
<path d="M339.785 118.562C339.962 117.084 339.212 115.793 338.109 115.678C337.006 115.563 335.969 116.668 335.792 118.146C335.614 119.623 336.365 120.914 337.468 121.029C338.57 121.144 339.608 120.039 339.785 118.562Z" fill="#3F3D56"/>
<path d="M309.241 85.3008C309.418 83.823 308.667 82.5319 307.565 82.417C306.462 82.3022 305.424 83.407 305.247 84.8848C305.07 86.3626 305.82 87.6537 306.923 87.7685C308.026 87.8834 309.063 86.7786 309.241 85.3008Z" fill="#E6E6E6"/>
<path d="M324.276 80.0351C324.453 78.5574 323.703 77.2663 322.6 77.1514C321.497 77.0365 320.46 78.1414 320.282 79.6192C320.105 81.0969 320.856 82.388 321.958 82.5029C323.061 82.6178 324.099 81.5129 324.276 80.0351Z" fill="#FF6584"/>
<path d="M305.753 65.8088C305.93 64.3311 305.18 63.04 304.077 62.9251C302.974 62.8102 301.937 63.9151 301.76 65.3929C301.583 66.8706 302.333 68.1617 303.436 68.2766C304.538 68.3915 305.576 67.2866 305.753 65.8088Z" fill="#3F3D56"/>
<path d="M1.76556 215.819H0V0H136.35V1.64592C100.656 1.64592 66.4237 14.8645 41.1843 38.3936C15.9449 61.9227 1.76556 93.8351 1.76556 127.11V215.819Z" fill="#F2F2F2"/>
<path d="M80.8361 405.476C78.5797 404.614 76.551 403.305 74.8904 401.641C73.2298 399.976 71.9769 397.995 71.2184 395.834C70.4599 393.674 70.2138 391.386 70.4973 389.128C70.7807 386.87 71.5869 384.696 72.86 382.757L24.2141 319.01L39.82 302.131L97.0037 378.239C100.345 380.479 102.689 383.785 103.591 387.528C104.493 391.272 103.89 395.194 101.897 398.552C99.9043 401.909 96.6596 404.468 92.7779 405.744C88.8963 407.021 84.6473 406.925 80.8361 405.476Z" fill="#FFB6B6"/>
<path d="M81.9538 203.462C79.4928 202.112 76.5962 201.624 73.784 202.086C70.9718 202.547 68.4282 203.928 66.6096 205.981L0.88266 291.674L61.7944 372.325L85.6295 348.459L48.5528 294.143L97.828 250.407C101.877 242.137 102.496 232.762 99.564 224.092C96.6323 215.422 90.3583 208.072 81.9538 203.462Z" fill="#F86061"/>
</g>
<defs>
<clipPath id="clip0_1_158">
<rect width="508" height="550" fill="white"/>
</clipPath>
</defs>
</svg>
